# xmcd CD database file
#
# Track frame offsets:
#	150
#	11712
#	22815
#	37195
#	48612
#	62312
#	76142
#	90185
#	102012
#	115187
#	127350
#	141202
#	153970
#	166810
#	181365
#	192732
#	204200
#	221195
#	235145
#	249100
#
# Disc length: 3525 seconds
#
# Revision: 2
# Processed by: cddbd v1.5.1PL2 Copyright (c) Steve Scherf et al.
# Submitted via: CDex 1.51
#
DISCID=060dc314
DTITLE=Jim Ed Brown and Helen Cornelius - Anthology
DYEAR=2000
DGENRE=Country
TTITLE0=Born Believer
TTITLE1=Don't Bother to Knock
TTITLE2=Fall Softly Snow
TTITLE3=Fools
TTITLE4=Have I told you Lately that I love You
TTITLE5=I Don't Want to Have to Marry You
TTITLE6=If It Ain't Love By Now
TTITLE7=If The World Ran out of Love Tonight
TTITLE8=I'll Never Be Free
TTITLE9=I'm Leaving it all up to You
TTITLE10=I've Rode With The Best
TTITLE11=Lying In Love With You
TTITLE12=Morning Comes Too Early
TTITLE13=One Man Woman One Woman Man
TTITLE14=Saying Hello Saying I Love You
TTITLE15=The Bedroom
TTITLE16=There's Always A Good-bye
TTITLE17=What Cha Doing After Midnight Baby
TTITLE18=You Don't Bring Me Flowers
TTITLE19=You're The Part of me
EXTD=YEAR: 2000
EXTT0=
EXTT1=
EXTT2=
EXTT3=
EXTT4=
EXTT5=
EXTT6=
EXTT7=
EXTT8=
EXTT9=
EXTT10=
EXTT11=
EXTT12=
EXTT13=
EXTT14=
EXTT15=
EXTT16=
EXTT17=
EXTT18=
EXTT19=
PLAYORDER=
